<?xml version="1.0" encoding="utf-8"?>
<!-- Generator: Adobe Illustrator 27.1.1, SVG Export Plug-In . SVG Version: 6.00 Build 0)  -->
<svg version="1.1" id="Layer_1" xmlns="http://www.w3.org/2000/svg" xmlns:xlink="http://www.w3.org/1999/xlink" x="0px" y="0px"
	 viewBox="0 0 360 216.02" style="enable-background:new 0 0 360 216.02;" xml:space="preserve">
<style type="text/css">
	.st0{fill:#FFFFFF;}
</style>
<g>
	<g>
		<path class="st0" d="M69.94,151.27h-0.92c-0.84,0-2.42,0.03-3.53,0.42c-0.58,0.42-1.74,2.03-2.4,2.98
			c-0.08,0.13-0.16,0.21-0.26,0.18l-0.58-0.21c-0.11-0.03-0.13-0.16-0.11-0.24c0.29-1.11,1.16-4.58,1.26-5.11
			c0.08-0.34,0.21-0.45,0.4-0.45s0.26,0.11,0.5,0.4c0.29,0.37,0.79,0.61,1.74,0.66c1.4,0.08,2.5,0.16,5.24,0.16h1.53
			c2.87,0,4-0.11,5.11-0.16c0.58-0.03,1.61-0.34,1.92-0.66c0.26-0.26,0.42-0.4,0.61-0.4s0.26,0.11,0.32,0.42
			c0.08,0.58,0.58,3.85,0.79,5.24c0.03,0.11-0.03,0.21-0.11,0.24l-0.55,0.21c-0.11,0.03-0.16-0.05-0.26-0.24
			c-0.58-0.95-1.61-2.32-2.27-2.95c-0.66-0.4-3-0.5-3.61-0.5h-0.87v7.25c0,0.37,0,7.75,0.03,8.14c0.05,0.66,0.26,1.05,0.9,1.05H76
			c0.24,0,0.26,0.08,0.26,0.26v0.61c0,0.13-0.03,0.21-0.26,0.21c-0.26,0-1.11-0.08-4.03-0.08c-2.79,0-3.9,0.08-4.27,0.08
			c-0.21,0-0.24-0.11-0.24-0.32v-0.5c0-0.18,0.03-0.26,0.18-0.26h1.34c0.53,0,0.84-0.32,0.9-0.79c0.05-0.55,0.05-8.64,0.05-9.14
			V151.27z"/>
		<path class="st0" d="M89.28,158.62c1.21,0,2.37-0.08,2.69-0.16c0.45-0.11,0.82-0.34,1.21-0.82c0.29-0.4,0.61-1.13,0.61-1.63
			c0-0.18,0.08-0.24,0.21-0.24l0.71,0.08c0.13,0.03,0.24,0.05,0.21,0.21c-0.08,0.45-0.08,1.82-0.08,2.74c0,1.19,0.11,2.45,0.16,3
			c0.03,0.16-0.08,0.18-0.21,0.21l-0.63,0.13c-0.11,0.03-0.16-0.03-0.21-0.21c-0.11-0.42-0.37-1.03-0.53-1.34
			c-0.29-0.5-0.92-0.84-1.45-0.92c-0.71-0.11-1.53-0.16-2.69-0.16v1.58c0,1.42,0.13,3.98,0.13,4.45c0,1.37,0.29,1.84,0.63,2
			c0.4,0.16,0.9,0.24,2.21,0.24c0.45,0,1.55-0.03,2.11-0.08c0.53-0.05,1.32-0.32,2-0.87c0.68-0.55,2.16-2.19,2.69-2.82
			c0.11-0.11,0.18-0.13,0.26-0.08l0.45,0.26c0.1,0.05,0.13,0.13,0.1,0.21l-1.19,3.98c-0.08,0.24-0.26,0.4-0.58,0.4
			c-0.13,0-0.71-0.03-2.4-0.05c-1.71,0-4.51-0.03-9.07-0.03c-0.97,0-1.71,0.03-2.24,0.03c-0.55,0.03-0.9,0.05-1.13,0.05
			c-0.18,0-0.24-0.08-0.24-0.29v-0.55c0-0.16,0.08-0.24,0.26-0.24h0.79c1.21,0,1.32-0.18,1.32-1.11v-8.83
			c0-2.19-0.05-5.43-0.08-5.69c-0.11-0.84-0.37-1.03-1.08-1.03h-1.03c-0.11,0-0.13-0.08-0.13-0.26v-0.63c0-0.08,0.03-0.18,0.18-0.18
			c0.58,0,1.5,0.08,3.9,0.08l9.25-0.03c0.42,0,0.92-0.05,1.05-0.05s0.18,0.05,0.21,0.13c0.11,0.37,0.97,3.98,1.08,4.24
			c0.05,0.13,0.05,0.18-0.08,0.26l-0.42,0.21c-0.11,0.05-0.24,0.03-0.32-0.11c-0.13-0.21-2.5-2.58-3.11-2.95
			c-0.55-0.34-1.29-0.69-2-0.71l-3.48-0.1L89.28,158.62z"/>
		<path class="st0" d="M104.59,166.68c-1.95-1.74-2.87-4.77-2.87-7.04c0-2.71,0.87-5.17,2.71-7.14c1.5-1.61,3.69-2.85,6.96-2.85
			c2.4,0,4.38,0.61,5.3,1.11c0.37,0.18,0.5,0.16,0.55-0.03l0.21-0.66c0.05-0.16,0.11-0.16,0.5-0.16c0.39,0,0.45,0.05,0.45,0.42
			c0,0.5,0.47,4.98,0.61,5.77c0.03,0.18,0,0.32-0.13,0.34l-0.58,0.16c-0.13,0.05-0.24-0.05-0.32-0.29c-0.29-1.05-1-2.4-2.11-3.53
			c-1.13-1.11-2.53-1.98-4.53-1.98c-3.85,0-5.48,3.5-5.45,7.4c0,1.66,0.47,4.9,2.34,6.88c1.71,1.77,3.21,1.98,4.11,1.98
			c3,0,5.24-1.37,6.22-2.82c0.13-0.21,0.26-0.32,0.4-0.21l0.45,0.4c0.08,0.05,0.11,0.16,0,0.32c-1.53,2.21-4.08,4.35-7.8,4.35
			C108.1,169.11,106.25,168.16,104.59,166.68z"/>
		<path class="st0" d="M123.33,158.33c0-1.63-0.05-5.19-0.05-5.56c0-1.34-0.18-1.71-0.9-1.71h-1.08c-0.29,0-0.32-0.1-0.32-0.26v-0.5
			c0-0.16,0.03-0.32,0.29-0.32c0.45,0,1.29,0.08,3.93,0.08c2.58,0,3.53-0.08,3.98-0.08c0.29,0,0.32,0.08,0.32,0.29v0.55
			c0,0.16-0.03,0.24-0.32,0.24h-0.63c-0.95,0-1.08,0.45-1.16,1.45c-0.03,0.37-0.16,3.85-0.16,5.32v0.4c0,0.13,0.08,0.21,0.42,0.21
			h7.88c0.4,0,0.53-0.05,0.53-0.34v-0.26c0-1.5-0.18-5.16-0.18-5.43c-0.03-0.84-0.13-1.34-0.61-1.34h-1.08
			c-0.24,0-0.26-0.08-0.26-0.26v-0.58c0-0.16,0.03-0.24,0.24-0.24c0.47,0,1.61,0.08,3.85,0.08c2.19,0,3.29-0.08,3.64-0.08
			c0.32,0,0.34,0.08,0.34,0.29v0.5c0,0.18-0.03,0.29-0.34,0.29h-0.79c-0.76,0-0.84,0.45-0.84,1.34c0,0.37-0.05,4.82-0.05,5.8v0.9
			c0,0.84,0.05,5.85,0.08,7.3c0,0.95,0.26,1.32,1.05,1.32h0.9c0.21,0,0.24,0.08,0.24,0.24v0.58c0,0.13-0.03,0.26-0.29,0.26
			c-0.42,0-1.32-0.08-3.69-0.08c-2.69,0-3.53,0.08-4.14,0.08c-0.29,0-0.34-0.13-0.34-0.26v-0.58c0-0.16,0.03-0.24,0.29-0.24h1.16
			c0.63,0,0.71-0.5,0.74-1.16c0.05-1.24,0.11-5.48,0.11-6.32v-0.32c0-0.29-0.26-0.32-0.58-0.32h-7.88c-0.29,0-0.37,0.08-0.37,0.32
			v0.4c0,0.66,0.11,4.72,0.18,6.51c0.03,0.63,0.29,0.9,0.87,0.9h0.74c0.21,0,0.24,0.05,0.24,0.21v0.63c0,0.16-0.03,0.24-0.24,0.24
			c-0.47,0-1.4-0.08-3.61-0.08c-2.79,0-3.58,0.08-4.11,0.08c-0.24,0-0.26-0.08-0.26-0.29v-0.55c0-0.18,0.03-0.24,0.26-0.24h1.21
			c0.66,0,0.74-0.63,0.74-1.21c0.03-1.24,0.08-6.35,0.08-7.04V158.33z"/>
		<path class="st0" d="M160.69,161.04c0-2.35-0.03-3.64-0.08-4.96c-0.03-1.03-0.16-3.61-0.24-4c-0.16-0.66-0.79-1.03-1.4-1.03h-0.84
			c-0.13,0-0.16-0.08-0.16-0.24v-0.66c0-0.13,0.03-0.18,0.24-0.18c0.29,0,1.13,0.08,3.08,0.08c1.58,0,2.21-0.08,2.5-0.08
			c0.24,0,0.26,0.05,0.26,0.21v0.63c0,0.13-0.03,0.24-0.13,0.24h-0.74c-0.45,0-0.71,0.45-0.79,1.4c-0.18,1.77-0.61,7.72-0.61,11.2
			v4.51c0,0.4-0.03,0.87-0.4,0.87c-0.39,0-0.74-0.13-1.03-0.42c-0.45-0.42-1.74-1.82-3.32-3.69c-1.9-2.24-4.01-4.77-4.51-5.35
			c-0.45-0.53-4.08-5.06-4.69-5.93h-0.21v5.32c0,2.19,0.24,5.43,0.26,6.43c0.05,1.53,0.53,2.32,1.63,2.32h0.66
			c0.18,0,0.21,0.08,0.21,0.24v0.63c0,0.16-0.03,0.21-0.21,0.21c-0.26,0-1.84-0.08-3.08-0.08c-0.82,0-2.64,0.08-2.9,0.08
			c-0.1,0-0.13-0.05-0.13-0.24v-0.69c0-0.08,0.03-0.16,0.16-0.16h0.92c0.58,0,1-0.84,1.13-2.61c0.03-0.5,0.24-4.72,0.24-8.62v-2.37
			c0-1.55-0.95-3.03-2.27-3.06l-0.66-0.03c-0.13,0-0.16-0.1-0.16-0.18v-0.71c0-0.11,0.03-0.16,0.16-0.16s0.34,0.03,0.84,0.03
			c0.53,0.03,1.37,0.05,2.74,0.05c0.9,0,1.69-0.05,2-0.05c0.34,0,0.55,0.11,0.76,0.34c0.13,0.16,5.32,6.51,6.11,7.48
			c0.37,0.45,4.22,5.27,4.51,5.61h0.11V161.04z"/>
		<path class="st0" d="M169.91,167.39c-1.87-1.13-3.87-3.98-3.87-7.83c0-1.61,0.42-4.11,2.45-6.56c2.32-2.82,5.3-3.35,7.67-3.35
			c2.19,0,4.22,0.34,6.43,2.08c2,1.58,3.61,4.24,3.61,7.88c0,1.92-0.61,3.93-1.98,5.77c-1.71,2.13-3.95,3.72-8.12,3.72
			C174.29,169.11,172,168.69,169.91,167.39z M182.06,159.83c0-5.77-3.79-8.93-6.01-8.93c-0.53,0-1.84-0.13-3.45,1.42
			c-1.55,1.48-2.34,4.24-2.34,6.4c0,6.75,3.87,9.14,6.06,9.14C181.19,167.87,182.06,161.99,182.06,159.83z"/>
		<path class="st0" d="M194.68,160.46c0,0.45,0,6.14,0.08,7.19h1.5c1.24,0,2.42,0,3.85-0.13c1.42-0.13,3.21-3.29,3.61-4.27
			c0.08-0.16,0.16-0.24,0.32-0.16l0.53,0.21c0.08,0.05,0.08,0.08,0.05,0.24c-0.08,0.18-1.13,4.53-1.29,5.24
			c-0.69-0.05-8.27-0.08-10.7-0.08c-2.61,0-3.56,0.08-3.9,0.08c-0.18,0-0.21-0.05-0.21-0.24v-0.66c0-0.13,0.03-0.18,0.18-0.18h0.82
			c0.97,0,1.13-0.37,1.13-0.66c0-0.5,0.08-7.06,0.08-8.67v-1.48c0-1.69-0.05-4.48-0.08-4.9c-0.05-0.69-0.18-0.95-0.79-0.95h-0.98
			c-0.16,0-0.18-0.13-0.18-0.26v-0.63c0-0.13,0.03-0.18,0.18-0.18c0.29,0,1.24,0.08,3.64,0.08c3.08,0,4.19-0.08,4.43-0.08
			c0.21,0,0.24,0.08,0.24,0.26v0.61c0,0.13-0.05,0.21-0.26,0.21h-1.24c-0.82,0-0.92,0.26-0.92,0.98c0,0.34-0.08,4.32-0.08,6.17
			V160.46z"/>
		<path class="st0" d="M209.91,167.39c-1.87-1.13-3.87-3.98-3.87-7.83c0-1.61,0.42-4.11,2.45-6.56c2.32-2.82,5.3-3.35,7.67-3.35
			c2.19,0,4.22,0.34,6.43,2.08c2,1.58,3.61,4.24,3.61,7.88c0,1.92-0.61,3.93-1.98,5.77c-1.71,2.13-3.95,3.72-8.12,3.72
			C214.29,169.11,212,168.69,209.91,167.39z M222.06,159.83c0-5.77-3.79-8.93-6.01-8.93c-0.53,0-1.84-0.13-3.45,1.42
			c-1.55,1.48-2.34,4.24-2.34,6.4c0,6.75,3.87,9.14,6.06,9.14C221.19,167.87,222.06,161.99,222.06,159.83z"/>
		<path class="st0" d="M247.25,166.16c0,0.37,0.11,0.63,0.11,0.84s-0.16,0.32-0.42,0.42c-2.13,1.08-4.38,1.69-7.72,1.69
			c-2.74,0-5.82-0.87-7.64-3c-1.61-1.82-2.42-4.06-2.42-7.25c0-2.4,1.13-4.95,3.06-6.61c1.92-1.69,4.3-2.58,7.46-2.58
			c2.66,0,4.64,0.74,5.51,1.29c0.32,0.18,0.5,0.13,0.66-0.08l0.26-0.42c0.13-0.18,0.18-0.26,0.34-0.26c0.29,0,0.37,0.18,0.37,0.47
			l0.4,5.43c0.03,0.32,0,0.45-0.11,0.47l-0.74,0.16c-0.16,0.03-0.24-0.03-0.32-0.26c-0.42-1.29-1.26-2.98-2.4-4
			c-1.03-0.98-2.37-1.63-4.16-1.63c-1.42,0-2.74,0.45-3.98,1.98c-1.21,1.45-2.11,3.64-2.11,6.01c0,3.11,0.87,5.82,2.29,7.25
			c1.24,1.24,2.24,1.79,4.03,1.79c1.37,0,2.11-0.11,2.98-0.53c0.55-0.26,0.61-1.11,0.61-2.48v-1.9c0-0.95-0.26-1.21-0.92-1.21h-1.11
			c-0.16,0-0.18-0.11-0.18-0.24v-0.66c0-0.11,0.03-0.18,0.18-0.18c0.24,0,1.53,0.08,3.9,0.08c2.42,0,3.4-0.08,3.61-0.08
			c0.21,0,0.24,0.08,0.24,0.21v0.66c0,0.16-0.03,0.21-0.18,0.21h-0.76c-0.47,0-0.82,0.18-0.82,0.95V166.16z"/>
		<path class="st0" d="M253.45,157.67c0-0.63-0.08-5.38-0.11-5.72c-0.05-0.63-0.32-0.9-0.87-0.9h-1.27c-0.13,0-0.21-0.05-0.21-0.16
			v-0.76c0-0.11,0.08-0.16,0.18-0.16c0.32,0,1.66,0.08,4.24,0.08c2.69,0,3.53-0.08,3.9-0.08c0.13,0,0.18,0.08,0.18,0.24v0.66
			c0,0.13-0.08,0.18-0.21,0.18h-0.76c-0.66,0-1.05,0.21-1.05,0.69c0,0.26-0.08,6.09-0.08,6.4v2.03c0,0.26,0.08,6.35,0.08,6.59
			c0,0.82,0.39,0.95,0.9,0.95h1.08c0.13,0,0.21,0.05,0.21,0.18v0.74c0,0.11-0.08,0.16-0.24,0.16c-0.32,0-1.37-0.08-3.87-0.08
			c-2.77,0-3.9,0.08-4.19,0.08c-0.13,0-0.21-0.05-0.21-0.21v-0.71c0-0.1,0.08-0.16,0.21-0.16h0.76c0.53,0,1.08-0.08,1.19-0.71
			c0.05-0.4,0.13-6.09,0.13-7.48V157.67z"/>
		<path class="st0" d="M268.36,158.62c1.21,0,2.37-0.08,2.69-0.16c0.45-0.11,0.82-0.34,1.21-0.82c0.29-0.4,0.61-1.13,0.61-1.63
			c0-0.18,0.08-0.24,0.21-0.24l0.71,0.08c0.13,0.03,0.24,0.05,0.21,0.21c-0.08,0.45-0.08,1.82-0.08,2.74c0,1.19,0.11,2.45,0.16,3
			c0.03,0.16-0.08,0.18-0.21,0.21l-0.63,0.13c-0.11,0.03-0.16-0.03-0.21-0.21c-0.11-0.42-0.37-1.03-0.53-1.34
			c-0.29-0.5-0.92-0.84-1.45-0.92c-0.71-0.11-1.53-0.16-2.69-0.16v1.58c0,1.42,0.13,3.98,0.13,4.45c0,1.37,0.29,1.84,0.63,2
			c0.4,0.16,0.9,0.24,2.21,0.24c0.45,0,1.55-0.03,2.11-0.08c0.53-0.05,1.32-0.32,2-0.87c0.68-0.55,2.16-2.19,2.69-2.82
			c0.11-0.11,0.18-0.13,0.26-0.08l0.45,0.26c0.11,0.05,0.13,0.13,0.11,0.21l-1.19,3.98c-0.08,0.24-0.26,0.4-0.58,0.4
			c-0.13,0-0.71-0.03-2.4-0.05c-1.71,0-4.51-0.03-9.07-0.03c-0.97,0-1.71,0.03-2.24,0.03c-0.55,0.03-0.9,0.05-1.13,0.05
			c-0.18,0-0.24-0.08-0.24-0.29v-0.55c0-0.16,0.08-0.24,0.26-0.24h0.79c1.21,0,1.32-0.18,1.32-1.11v-8.83
			c0-2.19-0.05-5.43-0.08-5.69c-0.11-0.84-0.37-1.03-1.08-1.03h-1.03c-0.11,0-0.13-0.08-0.13-0.26v-0.63c0-0.08,0.03-0.18,0.18-0.18
			c0.58,0,1.5,0.08,3.9,0.08l9.25-0.03c0.42,0,0.92-0.05,1.05-0.05s0.18,0.05,0.21,0.13c0.11,0.37,0.97,3.98,1.08,4.24
			c0.05,0.13,0.05,0.18-0.08,0.26l-0.42,0.21c-0.11,0.05-0.24,0.03-0.32-0.11c-0.13-0.21-2.5-2.58-3.11-2.95
			c-0.55-0.34-1.29-0.69-2-0.71l-3.48-0.1L268.36,158.62z"/>
		<path class="st0" d="M281.96,162.89c0.11,0,0.18,0.03,0.18,0.21c0.05,0.82,0.42,1.95,1.05,2.98c0.76,1.21,2.05,1.79,3.32,1.79
			c1.26,0,3.29-0.84,3.29-2.92c0-2.19-0.42-2.82-3.85-4.11c-0.79-0.29-2.48-1.13-3.82-2.29c-0.92-0.82-1.32-2.21-1.32-3.74
			c0-1.61,0.4-2.69,1.98-3.87c1.19-0.9,2.19-1.27,3.79-1.27c1.92,0,2.95,0.32,3.5,0.53c0.26,0.11,0.45,0.05,0.61-0.13l0.34-0.34
			c0.11-0.11,0.24-0.16,0.4-0.16c0.18,0,0.24,0.29,0.26,0.45l0.42,4.51c0,0.11-0.05,0.13-0.13,0.16l-0.58,0.18
			c-0.13,0.05-0.26,0-0.34-0.18c-0.29-0.76-0.74-1.79-1.63-2.74c-0.66-0.74-1.45-1.11-2.64-1.11c-1.98,0-2.79,1.71-2.79,2.4
			c0,0.98,0.03,1.77,0.69,2.42c0.68,0.71,2.19,1.34,3.48,1.71c1.26,0.37,2.29,1.03,3.37,2c1.03,0.92,1.45,2.08,1.45,3.93
			c0,3.21-2.29,5.82-5.77,5.82c-2.37,0-3.61-0.4-4.72-1.13c-0.32-0.21-0.47-0.29-0.61-0.29c-0.16,0-0.26,0.18-0.42,0.45
			c-0.16,0.29-0.29,0.32-0.47,0.32c-0.29,0-0.4-0.13-0.37-0.42l0.42-5.01c0.03-0.18,0.11-0.18,0.21-0.18L281.96,162.89z"/>
		<path class="st0" d="M68.55,189.67c-1.42-1.34-2.11-3.63-2.11-5.52c0-1.83,0.59-3.73,2.01-5.22c1.01-1.06,2.78-1.99,4.93-1.99
			c1.79,0,3.27,0.67,3.98,1.08c0.26,0.16,0.35,0.14,0.39,0l0.16-0.57c0.04-0.12,0.08-0.12,0.26-0.12c0.18,0,0.22,0.04,0.22,0.32
			c0,0.38,0.39,3.27,0.49,3.83c0.02,0.1,0,0.18-0.08,0.2l-0.3,0.08c-0.1,0.02-0.14,0-0.2-0.16c-0.28-0.65-0.71-1.6-1.54-2.45
			c-0.83-0.85-1.87-1.52-3.43-1.52c-3.53,0-4.95,3.13-4.93,6.01c0,1.14,0.35,3.37,1.89,5.07c1.34,1.5,2.46,1.66,3.79,1.66
			c2.23,0,3.96-1.22,4.87-2.5c0.06-0.1,0.1-0.12,0.16-0.06l0.26,0.2c0.06,0.04,0.1,0.08,0.04,0.18c-1.18,1.72-3.09,3.31-5.88,3.31
			C71.21,191.48,69.73,190.75,68.55,189.67z"/>
		<path class="st0" d="M83.65,190.2c-1.4-0.85-2.9-2.98-2.9-5.86c0-1.2,0.32-3.08,1.83-4.91c1.74-2.11,3.69-2.5,5.34-2.5
			c1.24,0,2.86,0.26,4.42,1.56c1.44,1.24,2.7,3.17,2.7,5.89c0,1.44-0.45,2.94-1.48,4.32c-1.2,1.6-2.96,2.78-5.68,2.78
			C86.92,191.48,85.21,191.17,83.65,190.2z M93.11,184.54c0-4.32-3.08-6.86-5.26-6.86c-0.3,0-1.64-0.24-3.12,1.16
			c-1.32,1.26-1.97,3.25-1.97,4.87c0,5.18,3.61,7.02,5.28,7.02C92.38,190.73,93.11,186.3,93.11,184.54z"/>
		<path class="st0" d="M98.65,179.79c0-1.16-0.59-1.81-1.3-1.83l-0.81-0.02c-0.1,0-0.12-0.08-0.12-0.14v-0.51
			c0-0.08,0.02-0.12,0.12-0.12s0.26,0.02,0.55,0.02c0.29,0.02,0.73,0.04,1.4,0.04c0.67,0,1.08-0.04,1.32-0.04
			c0.26,0,0.41,0.08,0.57,0.26c0.1,0.12,3.92,5.09,4.14,5.36c0.22,0.28,3.55,4.36,4.02,4.99h0.08v-2.35c0-1.75-0.02-2.72-0.06-3.71
			c-0.02-0.77-0.12-2.7-0.24-3.04c-0.16-0.49-0.53-0.77-1.08-0.77h-0.63c-0.08,0-0.12-0.04-0.12-0.14v-0.51
			c0-0.08,0.04-0.12,0.12-0.12c0.28,0,0.91,0.06,2.17,0.06c1.18,0,1.66-0.06,1.91-0.06c0.14,0,0.16,0.06,0.16,0.14v0.49
			c0,0.08-0.04,0.14-0.12,0.14h-0.53c-0.53,0-0.73,0.33-0.77,1.08c-0.08,1.32-0.08,3.27-0.08,4.55v7.37c0,0.28-0.02,0.47-0.1,0.47
			c-0.24,0-0.41-0.24-0.47-0.32c-0.02-0.04-1.18-1.5-2.41-3.04c-1.38-1.71-2.82-3.53-2.94-3.65c-0.22-0.2-3.84-4.75-3.96-4.91h-0.12
			v4.38c0,1.83,0.16,5.05,0.2,5.44c0.08,0.77,0.2,1.14,0.73,1.14h0.59c0.14,0,0.16,0.06,0.16,0.18v0.43c0,0.12-0.02,0.16-0.16,0.16
			c-0.2,0-1.38-0.06-1.91-0.06c-0.41,0-1.77,0.06-1.97,0.06c-0.08,0-0.1-0.04-0.1-0.14v-0.51c0-0.06,0.02-0.12,0.12-0.12h0.67
			c0.57,0,0.79-0.24,0.89-1.2c0.04-0.38,0.08-2.62,0.08-6.13V179.79z"/>
		<path class="st0" d="M114.29,190.46c-0.24-0.18-0.35-0.24-0.45-0.24c-0.12,0-0.2,0.14-0.32,0.33c-0.12,0.22-0.22,0.24-0.36,0.24
			c-0.12,0-0.22-0.1-0.18-0.32c0.08-0.49,0.28-3,0.33-3.57c0.02-0.12,0.06-0.12,0.14-0.12l0.3,0.02c0.08,0,0.12,0.04,0.12,0.16
			c0.02,0.63,0.06,1.28,0.71,2.29c0.59,0.93,1.68,1.46,2.76,1.46c1.18,0,2.68-0.73,2.68-2.5c0-2.03-1.46-2.78-3.04-3.33
			c-0.61-0.22-2.03-0.71-2.88-1.6c-0.65-0.65-0.99-1.58-0.99-2.88c0-0.99,0.61-1.95,1.22-2.52c0.71-0.67,1.7-0.95,2.76-0.95
			c1.12,0,1.99,0.34,2.33,0.49c0.18,0.1,0.28,0.08,0.37-0.02l0.26-0.24c0.1-0.08,0.16-0.12,0.26-0.12s0.16,0.16,0.16,0.33
			c0,0.69,0.26,2.7,0.28,3.13c0,0.1-0.02,0.14-0.1,0.16l-0.24,0.06c-0.06,0.02-0.1,0-0.12-0.06c-0.16-0.57-0.41-1.34-1.22-2.19
			c-0.53-0.57-1.22-0.85-2.15-0.85c-1.75,0-2.39,1.3-2.39,2.31c0,0.55,0.12,1.2,0.61,1.71c0.57,0.57,1.68,1.01,2.25,1.18
			c1.36,0.43,2.46,0.77,3.17,1.64c0.51,0.61,0.87,1.38,0.87,2.68c0,2.33-1.42,4.32-4.02,4.32
			C116.04,191.48,115.08,191.07,114.29,190.46z"/>
		<path class="st0" d="M127.1,191.07c-1.34-0.53-2.03-1.4-2.35-2.64c-0.24-0.89-0.32-2.21-0.32-4.79v-4.69
			c0-0.69-0.14-1.01-0.75-1.01h-0.93c-0.12,0-0.14-0.04-0.14-0.18v-0.43c0-0.12,0.02-0.16,0.18-0.16c0.2,0,1.16,0.06,2.7,0.06
			c1.54,0,2.48-0.06,2.7-0.06c0.16,0,0.18,0.04,0.18,0.12v0.51c0,0.1-0.02,0.14-0.16,0.14h-0.99c-0.57,0-0.91,0.38-0.95,0.81
			c-0.02,0.18-0.04,1.56-0.04,2.56v1.3c0,1.04,0.08,3.55,0.1,4.18c0.02,0.91,0.18,1.83,0.63,2.5c0.73,1.06,1.99,1.42,3.13,1.42
			c1.12,0,2.27-0.38,2.96-1.08c0.77-0.83,1.03-2.01,1.03-3.47v-4.22c0-1.5-0.04-2.64-0.1-3.13c-0.06-0.51-0.38-0.87-0.89-0.87h-0.87
			c-0.12,0-0.14-0.06-0.14-0.16v-0.47c0-0.1,0.02-0.14,0.14-0.14c0.2,0,1.1,0.06,2.42,0.06c1.36,0,1.99-0.06,2.17-0.06
			c0.18,0,0.2,0.08,0.2,0.14v0.43c0,0.12-0.02,0.2-0.12,0.2h-0.81c-0.73,0-0.79,0.55-0.85,0.79c-0.04,0.2-0.04,3-0.04,3.27
			c0,0.28-0.04,3.73-0.1,4.49c-0.12,1.62-0.55,2.86-1.66,3.81c-0.79,0.73-1.99,1.18-3.71,1.18
			C128.74,191.48,127.76,191.34,127.1,191.07z"/>
		<path class="st0" d="M139.94,182.35c0-1.26-0.04-3.35-0.06-3.71c-0.04-0.51-0.14-0.71-0.73-0.71h-0.93c-0.12,0-0.14-0.1-0.14-0.2
			v-0.43c0-0.1,0.02-0.14,0.14-0.14c0.22,0,0.93,0.06,2.56,0.06c1.91,0,2.74-0.06,2.92-0.06c0.16,0,0.18,0.06,0.18,0.16v0.45
			c0,0.1-0.04,0.16-0.2,0.16h-1.18c-0.61,0-0.69,0.2-0.69,0.77c0,0.26-0.06,3.23-0.06,4.61v1.7c0,0.33,0,4.59,0.06,5.4
			c0.43,0.04,4.34,0.08,4.95,0c1.16-0.18,2.35-2.54,2.62-3.31c0.04-0.08,0.08-0.12,0.16-0.08l0.32,0.12
			c0.06,0.04,0.06,0.06,0.04,0.18c-0.06,0.14-0.85,3.39-0.97,3.92c-0.26-0.02-1.79-0.04-3.55-0.04c-1.75-0.02-3.69-0.02-4.75-0.02
			c-0.77,0-1.34,0.02-1.75,0.02c-0.39,0.02-0.63,0.04-0.77,0.04s-0.16-0.04-0.16-0.14v-0.49c0-0.1,0.02-0.14,0.14-0.14h0.95
			c0.73,0,0.85-0.28,0.85-0.53c0-0.37,0.06-5.28,0.06-6.49V182.35z"/>
		<path class="st0" d="M153.62,177.94h-0.49c-0.63,0-2.35,0-3.12,0.24c-0.89,0.28-1.48,1.66-1.75,2.29c-0.04,0.1-0.1,0.12-0.2,0.1
			l-0.36-0.1c-0.06-0.02-0.12-0.04-0.08-0.16c0.2-0.71,0.89-3.25,0.93-3.47c0.04-0.26,0.12-0.32,0.2-0.32c0.1,0,0.16,0.02,0.24,0.08
			l0.26,0.18c0.35,0.26,0.55,0.32,1.12,0.33c1.04,0.04,1.87,0.12,3.73,0.12h0.95c2.15,0,3-0.08,3.96-0.12
			c0.43-0.02,0.69-0.08,1.03-0.28l0.37-0.24c0.1-0.06,0.16-0.08,0.24-0.08c0.1,0,0.14,0.06,0.18,0.32c0.04,0.24,0.41,2.68,0.57,3.55
			c0.02,0.1-0.02,0.14-0.12,0.16l-0.32,0.08c-0.08,0.02-0.1,0-0.16-0.14c-0.16-0.37-0.75-1.89-1.4-2.21
			c-0.59-0.3-2.45-0.33-3.41-0.33h-0.55v5.62c0,0.28,0,5.8,0.02,6.13c0.04,0.49,0.2,0.79,0.67,0.79h1.24c0.18,0,0.2,0.06,0.2,0.2
			v0.41c0,0.1-0.02,0.16-0.2,0.16c-0.2,0-0.83-0.06-2.76-0.06c-1.89,0-2.72,0.06-3,0.06c-0.16,0-0.18-0.08-0.18-0.2v-0.38
			c0-0.14,0.02-0.2,0.14-0.2h1.34c0.39,0,0.63-0.24,0.65-0.47c0.06-0.57,0.06-6.62,0.06-7V177.94z"/>
		<path class="st0" d="M164.56,182.92c0-0.47-0.06-4.02-0.08-4.32c-0.04-0.47-0.24-0.67-0.99-0.67h-1.14c-0.1,0-0.16-0.04-0.16-0.12
			v-0.53c0-0.08,0.06-0.12,0.14-0.12c0.24,0,1.24,0.06,3.08,0.06c1.75,0,2.39-0.06,2.66-0.06c0.1,0,0.14,0.06,0.14,0.14v0.49
			c0,0.1-0.06,0.14-0.16,0.14h-0.93c-0.39,0-0.69,0.16-0.69,0.55c0,0.2-0.06,4.55-0.06,4.79v1.52c0,0.2,0.06,4.75,0.06,4.97
			c0,0.61,0.3,0.71,0.93,0.71h0.81c0.1,0,0.16,0.04,0.16,0.14v0.51c0,0.08-0.06,0.12-0.18,0.12c-0.24,0-1.02-0.06-2.74-0.06
			c-1.87,0-2.72,0.06-2.94,0.06c-0.1,0-0.16-0.04-0.16-0.12v-0.53c0-0.08,0.06-0.12,0.16-0.12h1.1c0.39,0,0.81-0.06,0.89-0.57
			c0.04-0.3,0.1-4.55,0.1-5.6V182.92z"/>
		<path class="st0" d="M171.98,179.79c0-1.16-0.59-1.81-1.3-1.83l-0.81-0.02c-0.1,0-0.12-0.08-0.12-0.14v-0.51
			c0-0.08,0.02-0.12,0.12-0.12s0.26,0.02,0.55,0.02c0.29,0.02,0.73,0.04,1.4,0.04c0.67,0,1.08-0.04,1.32-0.04
			c0.26,0,0.41,0.08,0.57,0.26c0.1,0.12,3.92,5.09,4.14,5.36c0.22,0.28,3.55,4.36,4.02,4.99h0.08v-2.35c0-1.75-0.02-2.72-0.06-3.71
			c-0.02-0.77-0.12-2.7-0.24-3.04c-0.16-0.49-0.53-0.77-1.08-0.77h-0.63c-0.08,0-0.12-0.04-0.12-0.14v-0.51
			c0-0.08,0.04-0.12,0.12-0.12c0.28,0,0.91,0.06,2.17,0.06c1.18,0,1.66-0.06,1.91-0.06c0.14,0,0.16,0.06,0.16,0.14v0.49
			c0,0.08-0.04,0.14-0.12,0.14h-0.53c-0.53,0-0.73,0.33-0.77,1.08c-0.08,1.32-0.08,3.27-0.08,4.55v7.37c0,0.28-0.02,0.47-0.1,0.47
			c-0.24,0-0.41-0.24-0.47-0.32c-0.02-0.04-1.18-1.5-2.41-3.04c-1.38-1.71-2.82-3.53-2.94-3.65c-0.22-0.2-3.84-4.75-3.96-4.91h-0.12
			v4.38c0,1.83,0.16,5.05,0.2,5.44c0.08,0.77,0.2,1.14,0.73,1.14h0.59c0.14,0,0.16,0.06,0.16,0.18v0.43c0,0.12-0.02,0.16-0.16,0.16
			c-0.2,0-1.38-0.06-1.91-0.06c-0.41,0-1.77,0.06-1.97,0.06c-0.08,0-0.1-0.04-0.1-0.14v-0.51c0-0.06,0.02-0.12,0.12-0.12h0.67
			c0.57,0,0.79-0.24,0.89-1.2c0.04-0.38,0.08-2.62,0.08-6.13V179.79z"/>
		<path class="st0" d="M197.07,186.83c0-0.71-0.22-0.91-0.81-0.91h-0.83c-0.1,0-0.14-0.04-0.14-0.12v-0.49
			c0-0.12,0.02-0.16,0.12-0.16c0.28,0,1.16,0.06,2.5,0.06c1.42,0,2.05-0.06,2.33-0.06c0.14,0,0.16,0.06,0.16,0.14v0.47
			c0,0.08-0.02,0.16-0.14,0.16h-0.77c-0.35,0-0.61,0.14-0.61,0.75v2.6c0,0.28,0.08,0.47,0.08,0.63c0,0.16-0.12,0.24-0.32,0.32
			c-1.6,0.81-3.17,1.26-5.38,1.26c-1.75,0-4.16-0.65-5.52-2.25c-1.2-1.36-1.81-3.04-1.81-5.42c0-1.79,0.77-3.71,2.23-5.01
			c1.4-1.2,3.17-1.87,5.54-1.87c1.7,0,3.21,0.63,3.88,1.14c0.22,0.18,0.33,0.14,0.45-0.02l0.3-0.35c0.08-0.08,0.16-0.18,0.28-0.18
			c0.14,0,0.18,0.1,0.18,0.24l0.06,3.77c0,0.1-0.02,0.18-0.1,0.18l-0.35,0.04c-0.08,0-0.14-0.06-0.16-0.16
			c-0.16-0.55-0.49-1.48-1.18-2.33c-0.59-0.73-1.81-1.62-3.59-1.62c-1.36,0-2.58,0.33-3.77,1.6c-1.06,1.12-1.74,2.76-1.74,4.54
			c0,2.33,0.65,4.36,1.87,5.52c0.99,0.95,2.19,1.4,3.47,1.4c1.58,0,2.54-0.28,3.23-0.67c0.45-0.28,0.53-0.71,0.53-1.74V186.83z"/>
		<path class="st0" d="M210.56,185.96c0,0.93,0.02,3.61,0.04,3.88c0.04,0.43,0.24,0.63,0.65,0.63h1.26c0.14,0,0.16,0.06,0.16,0.14
			v0.47c0,0.1-0.02,0.16-0.18,0.16c-0.28,0-0.89-0.06-2.74-0.06c-1.73,0-2.5,0.06-2.72,0.06c-0.14,0-0.16-0.06-0.16-0.14v-0.49
			c0-0.1,0.02-0.14,0.12-0.14h0.85c0.67,0,0.81-0.1,0.87-0.63c0.02-0.2,0.08-3.27,0.08-5.56v-2.27c0-1.3-0.02-3.45-0.04-3.65
			c-0.04-0.39-0.24-0.43-0.77-0.43h-1.12c-0.1,0-0.12-0.04-0.12-0.16v-0.47c0-0.1,0.02-0.14,0.12-0.14c0.22,0,0.93,0.06,2.8,0.06
			c0.35,0,1.52-0.06,2.17-0.06c2.23,0,3.27,0.22,4.4,0.99c0.93,0.63,1.5,1.74,1.5,2.86c0,2.48-1.87,4.02-5.01,4.02
			c-0.73,0-1.52-0.02-2.15-0.1V185.96z M210.56,184.23c0.39,0.12,1.04,0.18,1.81,0.18c1.2,0,2.27-0.65,2.78-1.34
			c0.43-0.57,0.51-1.3,0.51-1.99c0-2.58-2.41-3.27-3.57-3.27c-0.33,0-1.14,0-1.54,0.14V184.23z"/>
		<path class="st0" d="M218.64,177.31c0-0.1,0.02-0.14,0.14-0.14c0.2,0,0.85,0.06,2.38,0.06c1.66,0,2.54-0.06,2.72-0.06
			s0.2,0.06,0.2,0.14v0.45c0,0.1-0.02,0.18-0.16,0.18h-0.95c-0.55,0-0.83,0.18-0.83,0.51c0,0.16,0.02,0.39,0.08,0.67
			c0.12,0.71,0.85,3.06,1.2,4.16c0.24,0.75,1.38,4.14,1.83,5.34h0.04c0.41-0.93,1.95-4.99,2.11-5.44c0.2-0.53,0.95-2.8,1.24-3.67
			c0.16-0.49,0.28-0.85,0.28-1.12c0-0.24-0.14-0.45-0.63-0.45h-0.51c-0.08,0-0.1-0.06-0.1-0.18v-0.45c0-0.1,0.02-0.14,0.12-0.14
			c0.18,0,1.08,0.06,2.33,0.06c1.44,0,1.93-0.06,2.11-0.06c0.12,0,0.14,0.04,0.14,0.14v0.49c0,0.08-0.02,0.14-0.14,0.14h-0.53
			c-0.65,0-1.03,0.32-1.4,0.77c-0.51,0.63-2.09,4.67-2.42,5.5c-0.24,0.65-2.78,6.92-2.88,7.12c-0.08,0.16-0.18,0.26-0.28,0.26
			c-0.16,0-0.24-0.2-0.33-0.45c-0.63-1.81-2.23-6.31-2.48-7.02l-0.2-0.67c-0.47-1.4-1.4-4.26-1.66-4.85
			c-0.2-0.45-0.39-0.65-0.81-0.65h-0.51c-0.08,0-0.1-0.06-0.1-0.14V177.31z"/>
		<path class="st0" d="M238.4,177.94h-0.49c-0.63,0-2.35,0-3.12,0.24c-0.89,0.28-1.48,1.66-1.75,2.29c-0.04,0.1-0.1,0.12-0.2,0.1
			l-0.36-0.1c-0.06-0.02-0.12-0.04-0.08-0.16c0.2-0.71,0.89-3.25,0.93-3.47c0.04-0.26,0.12-0.32,0.2-0.32c0.1,0,0.16,0.02,0.24,0.08
			l0.26,0.18c0.35,0.26,0.55,0.32,1.12,0.33c1.04,0.04,1.87,0.12,3.73,0.12h0.95c2.15,0,3-0.08,3.96-0.12
			c0.43-0.02,0.69-0.08,1.03-0.28l0.37-0.24c0.1-0.06,0.16-0.08,0.24-0.08c0.1,0,0.14,0.06,0.18,0.32c0.04,0.24,0.41,2.68,0.57,3.55
			c0.02,0.1-0.02,0.14-0.12,0.16l-0.32,0.08c-0.08,0.02-0.1,0-0.16-0.14c-0.16-0.37-0.75-1.89-1.4-2.21
			c-0.59-0.3-2.45-0.33-3.41-0.33h-0.55v5.62c0,0.28,0,5.8,0.02,6.13c0.04,0.49,0.2,0.79,0.67,0.79h1.24c0.18,0,0.2,0.06,0.2,0.2
			v0.41c0,0.1-0.02,0.16-0.2,0.16c-0.2,0-0.83-0.06-2.76-0.06c-1.89,0-2.72,0.06-3,0.06c-0.16,0-0.18-0.08-0.18-0.2v-0.38
			c0-0.14,0.02-0.2,0.14-0.2h1.34c0.39,0,0.63-0.24,0.65-0.47c0.06-0.57,0.06-6.62,0.06-7V177.94z"/>
		<path class="st0" d="M245.26,190.26c0-0.33,0.24-1.1,1.22-1.1c0.57,0,1.1,0.45,1.1,1.18c0,0.65-0.49,1.08-1.1,1.08
			C246.05,191.42,245.26,191.18,245.26,190.26z"/>
		<path class="st0" d="M255.32,182.35c0-1.26-0.04-3.35-0.06-3.71c-0.04-0.51-0.14-0.71-0.73-0.71h-0.93c-0.12,0-0.14-0.1-0.14-0.2
			v-0.43c0-0.1,0.02-0.14,0.14-0.14c0.22,0,0.93,0.06,2.56,0.06c1.91,0,2.74-0.06,2.92-0.06c0.16,0,0.18,0.06,0.18,0.16v0.45
			c0,0.1-0.04,0.16-0.2,0.16h-1.18c-0.61,0-0.69,0.2-0.69,0.77c0,0.26-0.06,3.23-0.06,4.61v1.7c0,0.33,0,4.59,0.06,5.4
			c0.43,0.04,4.34,0.08,4.95,0c1.16-0.18,2.35-2.54,2.62-3.31c0.04-0.08,0.08-0.12,0.16-0.08l0.32,0.12
			c0.06,0.04,0.06,0.06,0.04,0.18c-0.06,0.14-0.85,3.39-0.97,3.92c-0.26-0.02-1.79-0.04-3.55-0.04c-1.75-0.02-3.69-0.02-4.75-0.02
			c-0.77,0-1.34,0.02-1.75,0.02c-0.39,0.02-0.63,0.04-0.77,0.04s-0.16-0.04-0.16-0.14v-0.49c0-0.1,0.02-0.14,0.14-0.14h0.95
			c0.73,0,0.85-0.28,0.85-0.53c0-0.37,0.06-5.28,0.06-6.49V182.35z"/>
		<path class="st0" d="M269,177.94h-0.49c-0.63,0-2.35,0-3.12,0.24c-0.89,0.28-1.48,1.66-1.75,2.29c-0.04,0.1-0.1,0.12-0.2,0.1
			l-0.36-0.1c-0.06-0.02-0.12-0.04-0.08-0.16c0.2-0.71,0.89-3.25,0.93-3.47c0.04-0.26,0.12-0.32,0.2-0.32c0.1,0,0.16,0.02,0.24,0.08
			l0.26,0.18c0.35,0.26,0.55,0.32,1.12,0.33c1.04,0.04,1.87,0.12,3.73,0.12h0.95c2.15,0,3-0.08,3.96-0.12
			c0.43-0.02,0.69-0.08,1.03-0.28l0.37-0.24c0.1-0.06,0.16-0.08,0.24-0.08c0.1,0,0.14,0.06,0.18,0.32c0.04,0.24,0.41,2.68,0.57,3.55
			c0.02,0.1-0.02,0.14-0.12,0.16l-0.32,0.08c-0.08,0.02-0.1,0-0.16-0.14c-0.16-0.37-0.75-1.89-1.4-2.21
			c-0.59-0.3-2.45-0.33-3.41-0.33h-0.55v5.62c0,0.28,0,5.8,0.02,6.13c0.04,0.49,0.2,0.79,0.67,0.79h1.24c0.18,0,0.2,0.06,0.2,0.2
			v0.41c0,0.1-0.02,0.16-0.2,0.16c-0.2,0-0.83-0.06-2.76-0.06c-1.89,0-2.72,0.06-3,0.06c-0.16,0-0.18-0.08-0.18-0.2v-0.38
			c0-0.14,0.02-0.2,0.14-0.2h1.34c0.39,0,0.63-0.24,0.65-0.47c0.06-0.57,0.06-6.62,0.06-7V177.94z"/>
		<path class="st0" d="M280,182.14c0-0.51-0.06-3.31-0.1-3.65c-0.06-0.47-0.32-0.55-0.85-0.55h-1.08c-0.1,0-0.16-0.02-0.16-0.14
			v-0.53c0-0.08,0.06-0.1,0.14-0.1c0.26,0,1.12,0.06,2.9,0.06c0.51,0,2.48-0.06,2.94-0.06c2.54,0,4.67,0.3,6.41,1.77
			c1.28,1.1,2.19,2.74,2.19,5.03c0,2.27-0.65,3.77-1.95,5.19c-1.89,2.09-4.61,2.09-6.13,2.09c-1.24,0-2.74-0.06-3.63-0.06
			c-1.71,0-2.5,0.06-2.78,0.06c-0.1,0-0.14-0.04-0.14-0.14v-0.51c0-0.08,0.06-0.12,0.16-0.12h1.32c0.37,0,0.59-0.16,0.63-0.47
			c0.06-0.41,0.14-4.85,0.14-6.39V182.14z M281.81,184.05c0,0.26,0.02,3.61,0.04,4.83c0,0.39,0.08,0.71,0.34,1.1
			c0.32,0.41,1.1,0.63,2.09,0.63c2.01,0,3.65-0.87,4.63-2.13c0.83-1.02,1.44-2.64,1.44-4.44c0-1.54-0.67-3.31-1.62-4.36
			c-1.03-1.12-2.76-1.89-4.95-1.89c-0.43,0-1.24,0-1.58,0.2c-0.28,0.18-0.36,0.49-0.38,0.93c-0.02,0.83-0.02,3.41-0.02,3.73V184.05z
			"/>
		<path class="st0" d="M294.16,190.26c0-0.33,0.24-1.1,1.22-1.1c0.57,0,1.1,0.45,1.1,1.18c0,0.65-0.49,1.08-1.1,1.08
			C294.95,191.42,294.16,191.18,294.16,190.26z"/>
	</g>
	<g>
		<g>
			<path class="st0" d="M227.57,84.32c-14.78,0-29.49,0-44.32,0c0-21.66,0-43.18,0-64.87c0.54,0.29,1.02,0.52,1.48,0.79
				c6.05,3.48,12.07,7,18.15,10.43c1.01,0.57,1.36,1.21,1.35,2.37c-0.04,13.92-0.03,27.85-0.03,41.77c0,0.7,0,1.39,0,2.19
				c7.83,0,15.54,0,23.38,0c0.03-0.5,0.09-0.98,0.1-1.46c0.01-6.94-0.02-13.87,0.03-20.81c0.01-1.11-0.34-1.75-1.33-2.23
				c-1.22-0.59-2.32-1.41-3.54-1.99c-1.08-0.51-1.38-1.23-1.33-2.37c0.09-2.1,0.03-4.21,0.03-6.47c0.44,0.18,0.77,0.26,1.05,0.43
				c3.74,2.15,7.47,4.33,11.23,6.45c0.75,0.42,1.03,0.9,1.03,1.77c-0.02,20.26-0.01,40.51-0.06,60.77c0,0.56-0.42,1.36-0.88,1.63
				c-16.58,9.63-33.19,19.22-49.79,28.81c-0.25,0.14-0.51,0.25-0.9,0.43c0-15.11,0-30.06,0-45.12c6.95,0,13.86,0,20.97,0
				c0,8.17,0,16.34,0,24.76c0.69-0.36,1.13-0.56,1.55-0.8c6.91-3.99,13.83-7.97,20.72-12c0.54-0.32,1.18-1.07,1.18-1.63
				c0.07-7.39,0.04-14.78,0.04-22.17C227.67,84.85,227.63,84.7,227.57,84.32z M190.32,31.71c0,15.26,0,30.27,0,45.28
				c2.29,0,4.47,0,6.59,0c0.08-0.15,0.11-0.2,0.11-0.24c0.01-13.45,0.03-26.9,0.02-40.36c0-0.34-0.17-0.84-0.42-1
				C194.6,34.16,192.52,32.98,190.32,31.71z M190.27,129.71c2.05-1.18,3.84-2.27,5.7-3.24c0.89-0.47,1.13-1.05,1.12-2.02
				c-0.04-6.33-0.02-12.67-0.03-19c0-0.48-0.04-0.97-0.06-1.42c-2.32,0-4.51,0-6.73,0C190.27,112.57,190.27,121,190.27,129.71z"/>
		</g>
		<g>
			<path class="st0" d="M175.97,142.02c-3.72-2.15-7.28-4.19-10.83-6.24c-13.17-7.6-26.34-15.21-39.52-22.8
				c-0.78-0.45-1.27-0.87-1.27-1.93c0.05-10.86,0.03-21.71,0.03-32.57c0-0.39,0.05-0.78,0.08-1.27c4.36,0,8.66,0,13.08,0
				c0,2.28,0,4.56,0,7.02c-1.9,0-3.83,0-5.91,0c-0.05,0.64-0.11,1.11-0.11,1.59c-0.01,6.99-0.03,13.97,0.03,20.96
				c0.01,0.63,0.37,1.54,0.85,1.83c7.23,4.25,14.5,8.41,21.77,12.59c0.16,0.09,0.35,0.16,0.82,0.37c0-0.8,0-1.42,0-2.04
				c0-28.7,0.01-57.4-0.03-86.1c0-1.43,0.4-2.22,1.68-2.94c5.91-3.31,11.76-6.74,17.63-10.13c0.51-0.3,1.03-0.58,1.7-0.95
				C175.97,60.31,175.97,101.03,175.97,142.02z M168.9,129.69c0-32.78,0-65.27,0-97.98c-1.89,1.08-3.58,2.14-5.35,3.04
				c-1.07,0.55-1.44,1.21-1.44,2.44c0.04,29,0.03,58,0.03,87c0,0.3-0.06,0.62,0.02,0.9c0.1,0.35,0.23,0.8,0.5,0.96
				C164.66,127.28,166.7,128.43,168.9,129.69z"/>
		</g>
		<g>
			<path class="st0" d="M131.4,64c-2.36,0-4.59,0-7.02,0c0-1.95,0-3.84,0-5.73c0-2.66-0.03-5.32,0.03-7.98
				c0.01-0.51,0.26-1.24,0.65-1.47c3.96-2.36,7.96-4.64,11.96-6.94c0.11-0.07,0.28-0.05,0.62-0.1c0,2.54,0.03,5.02-0.04,7.5
				c-0.01,0.32-0.48,0.72-0.83,0.94c-1.37,0.84-2.74,1.68-4.17,2.4c-0.9,0.45-1.16,1.05-1.14,2.02c0.06,2.56,0.03,5.12,0.02,7.68
				C131.48,62.85,131.43,63.39,131.4,64z"/>
		</g>
	</g>
</g>
</svg>
