<svg xmlns="http://www.w3.org/2000/svg" viewBox="0 0 24 24"><path d="M11.144531 22.136719c-.128906-.078125-.449219-.265625-.714843-.417969-4.183594-2.40625-7.5625-4.363281-7.597657-4.394531-.023437-.023438-.054687-.066407-.066406-.09375-.015625-.039063-.023437-.890625-.019531-2.9375l.007812-2.882813h2.1875l.003906.585938.007813.589844h-1l-.015625.167968c-.003906.09375-.007812.964844-.003906 1.9375.003906 1.761719.003906 1.769532.050781 1.851563.066406.125-.085937.027343 1.355469.863281 1.46875.851562 2.449218 1.410156 2.492187 1.425781l.042969.011719V3.882812l.046875-.089843c.023437-.050781.078125-.113281.117187-.144531.039063-.03125.609376-.363282 1.265626-.742188.660156-.375 1.359374-.777344 1.554687-.890625.394531-.230469.511719-.292969.523437-.28125.003907.003906.007813 4.625.003907 10.273437l-.003907 10.265626Zm-.945312-14.253907-.003907-4.109374-.296874.175781c-.164063.09375-.378907.21875-.484376.277343-.207031.109376-.300781.199219-.332031.316407-.015625.054687-.019531 2.375-.019531 7.480469 0 7.109374 0 7.40625.035156 7.484374.039063.085938.105469.128907.808594.53125l.289062.164063.003907-4.105469c.003906-2.257812.003906-5.953125 0-8.214844Zm2.402343 10.597657.007813-3.777344 1.753906-.007813 1.75-.003906v2.074219c0 1.140625.003907 2.078125.011719 2.078125.054688 0 3.648438-2.070312 3.789062-2.1875.039063-.027344.089844-.085938.109376-.125.035156-.066406.039062-.152344.03125-1.992188l-.003907-1.921874-3.714843-.007813-3.71875-.003906V1.726562l.109374.054688c.058594.03125.484376.273438.945313.542969.464844.265625 1.167969.671875 1.566406.894531.398438.226562.746094.433594.769531.457031.027344.027344.066407.074219.082032.105469.03125.058594.035156.363281.035156 3.824219v3.761719l1.953125.007812c1.546875.003906 1.953125 0 1.964844-.023438.011719-.011718.019531-.882812.019531-1.929687 0-2.054687.003906-1.988281-.105469-2.082031-.027343-.023438-.214843-.136719-.421875-.253906-.203125-.117188-.398437-.238282-.429687-.269532l-.054688-.0625-.007812-.652344c-.003907-.359374 0-.652343.011719-.652343.035156.003906.242187.117187 1.15625.644531.667968.382812.972656.570312 1.003906.613281l.042968.0625V17.15625l-.050781.089844c-.0625.105468.257813-.085938-2.976562 1.785156-4.015625 2.324219-5.539063 3.199219-5.585938 3.214844l-.046875.011718Zm1.746094 1.414062c.445313-.25.523438-.304687.558594-.394531.015625-.039062.023438-.589844.019531-1.824219l-.007812-1.769531-1.132813-.007812v4.316406l.066406-.039063c.035157-.019531.257813-.148437.496094-.28125Zm.558594-8.539062c.03125-.035157.035156-6.789063 0-6.882813-.019531-.0625-.125-.128906-.921875-.59375l-.179687-.105468v7.605468h.539062c.390625 0 .542969-.007812.5625-.023437ZM2.742188 8.011719c0-1.105469.003906-1.1875.039062-1.265625s.074219-.105469.546875-.382813c.949219-.550781 1.550781-.894531 1.585937-.894531.027344 0 .03125.042969.042969.261719.003907.144531.003907.433593 0 .648437l-.011719.386719-.058593.054687c-.050781.050782-.324219.214844-.722657.441407-.246093.136719-.234374.085937-.234374 1.007812 0 .4375-.007813.824219-.015626.859375l-.011718.0625H2.742188Zm0 0" style="stroke:none;fill-rule:nonzero;fill:#f9f9f9;fill-opacity:1"/></svg>