<svg xmlns="http://www.w3.org/2000/svg" viewBox="0 0 512 512"><path d="M364.87672 553.08036c-2.7589-1.61782-9.6292-5.59663-15.2671-8.84181-89.2338-51.36238-161.3737-93.0906-162.1244-93.77832-.5205-.47682-1.1605-1.38736-1.4221-2.02342-.3375-.82072-.4427-19.01302-.3622-62.66146l.1134-61.50498h46.674l.1158 12.54091.1157 12.54091h-21.3091l-.2866 3.5987c-.1576 1.97928-.2243 20.57799-.1482 41.33047.1379 37.61092.1413 37.73737 1.0734 39.4766 1.4303 2.66908-1.791.6185 28.945 18.4253 31.3542 18.16495 52.2655 30.1277 53.1612 30.41197l.9283.29463V163.7135l.9814-1.92102c.5398-1.05656 1.6685-2.45589 2.5083-3.10962.8396-.65374 13.0097-7.75397 27.0447-15.7783 14.0349-8.02433 28.9467-16.59713 33.1374-19.05066 8.4429-4.94313 10.9178-6.27388 11.1803-6.01144.097.0969.1269 98.72697.066 219.17783l-.1094 219.00157zm-20.1734-304.0575-.1101-87.67936-6.325 3.74781c-3.4786 2.0613-8.1303 4.72352-10.3368 5.91606-4.4066 2.38153-6.3871 4.28091-7.0852 6.79508-.3155 1.136-.4554 50.68515-.4505 159.55408.01 151.68617.039 157.97515.8 159.65164.848 1.86666 2.1913 2.7503 17.2612 11.35506l6.1363 3.50377.1101-87.58238c.061-48.17031.061-127.03811 0-175.26176zm51.2519 226.09533.1103-80.61872 37.4046-.11149 37.4046-.11149v44.27729c0 24.35252.082 44.2773.182 44.2773 1.2239 0 77.8367-44.1209 80.9063-46.59355.8145-.65605 1.846-1.87371 2.2923-2.70591.777-1.44885.8068-3.25456.7002-42.51911l-.1113-41.00601-79.2803-.11023-79.2803-.11023V117.71237l2.2901 1.15986c1.2595.63794 10.3595 5.83015 20.2222 11.53827 9.8626 5.70812 24.879 14.33182 33.3697 19.16378 8.4907 4.83196 15.8979 9.2123 16.4605 9.73409.5625.52181 1.3478 1.5376 1.7447 2.25734.6644 1.20435.722 7.70394.722 81.57044v80.26181l41.6305.11126c33.0162.0883 41.7025-.002 41.9781-.43619.1912-.30112.3506-18.85806.3544-41.23765.01-43.7726.077-42.39243-2.2273-44.40332-.5707-.49821-4.6075-2.92812-8.9707-5.3998-4.3633-2.47168-8.4853-5.07015-9.1603-5.77436l-1.2273-1.28039-.1265-13.93052c-.069-7.66179.028-13.92438.2182-13.91689.7754.0307 5.2206 2.50031 24.7108 13.72866 14.2537 8.21151 20.7232 12.17181 21.3742 13.08435l.9335 1.30862-.011 110.79618-.011 110.79621-1.0764 1.89981c-1.281 2.26104 5.4846-1.80112-63.4596 38.10226-85.643 49.56838-118.1543 68.27767-119.1942 68.59289l-.9826.29784zm37.1877 30.19058c9.5283-5.37444 11.1782-6.54081 11.9688-8.46131.3302-.80192.4385-12.53059.3589-38.8801l-.1139-37.73177-12.1047-.11596-12.1048-.11594v92.13932l1.4177-.83366c.7797-.45852 5.5398-3.15879 10.578-6.00058zm11.9085-182.21615c.7115-.71156.7645-144.78339.054-146.82163-.4717-1.35305-2.671-2.76589-19.7052-12.6585l-3.8168-2.21662v162.2202h11.472c8.3413 0 11.6151-.14286 11.9957-.52345zm-259.4456-71.34141c.01-23.584.061-25.30442.8181-26.97099.7501-1.65172 1.5911-2.23757 11.6589-8.12234 20.2384-11.82967 33.1125-19.10521 33.8066-19.10521.5835 0 .7269.86996.9169 5.56162.1239 3.05889.123 9.28869 0 13.844l-.2272 8.28237-1.2453 1.1632c-1.118 1.04438-6.891 4.54804-15.4036 9.34855-5.3001 2.98888-5.032 1.83989-5.032 21.57039 0 9.29115-.1227 17.50641-.2727 18.25612l-.2726 1.36315h-24.7546z" style="fill:#f9f9f9;stroke-width:1" transform="translate(-127.08832 -80.867119)"/></svg>